#!OML:ASF E:\emotionWalksFemale\Project 1\Capture day 1\Session 1\Female1.ASF
:FULLY-SPECIFIED
:DEGREES
472
root 8.77311 15.4614 16.5386 176.43 -3.79196 -175.861
lowerback 10.453 0.559873 1.73377
upperback -4.79145 1.00799 0.651395
thorax -11.0441 0.35362 -0.466196
lowerneck -9.09754 -3.80922 -6.63779
upperneck 19.1526 -6.11004 5.86747
head 7.77011 -3.17745 2.41118
rclavicle -4.87022e-015 -5.1684e-015
rhumerus -40.8353 15.0181 -87.7191
rradius 55.6238
rwrist -25.76
rhand 2.43898 -48.606
rfingers 7.12502
rthumb -152.076 463.45
lclavicle -4.87022e-015 -5.1684e-015
lhumerus -51.2028 -8.22355 84.9005
lradius 47.3993
lwrist 12.5774
lhand -18.6947 -45.2765
lfingers 7.12502
lthumb 7.59981 -15.4331
rfemur -3.88058 11.7963 32.7095
rtibia 7.38555
rfoot -1.07066 -26.153
rtoes 12.8922
lfemur -18.1672 4.2107 -13.2518
ltibia 88.5062
lfoot -6.23158 -8.66755
ltoes -26.0716
473
root 8.78199 15.4746 16.4016 176.383 -3.69111 -175.504
lowerback 10.541 0.687895 2.183
upperback -4.74877 1.25488 0.693093
thorax -11.0369 0.441339 -0.7238
lowerneck -8.98021 -3.91233 -6.62504
upperneck 19.0605 -6.26965 5.9312
head 7.73122 -3.24852 2.41613
rclavicle -9.0944e-015 3.97569e-015
rhumerus -38.6629 15.9131 -87.1951
rradius 57.3662
rwrist -26.0607
rhand 2.53867 -47.3453
rfingers 7.12502
rthumb -151.98 464.727
lclavicle -9.0944e-015 3.97569e-015
lhumerus -53.2132 -8.16144 84.6774
lradius 46.7244
lwrist 12.0808
lhand -18.9777 -45.1737
lfingers 7.12502
lthumb 7.32664 -15.3206
rfemur -1.00832 11.5495 33.3196
rtibia 2.93206
rfoot -0.180039 -25.7965
rtoes 17.0025
lfemur -20.8828 3.9745 -12.7597
ltibia 92.3835
lfoot -7.8994 -9.00983
ltoes -25.8838
474
root 8.78946 15.4881 16.2692 176.277 -3.66812 -175.193
lowerback 10.598 0.811254 2.56862
upperback -4.59939 1.49025 0.77344
thorax -10.8911 0.53437 -0.900805
lowerneck -9.02085 -4.01973 -6.73412
upperneck 18.933 -6.39474 6.03703
head 7.7125 -3.29839 2.45628
rclavicle -1.37161e-014 -5.1684e-015
rhumerus -36.3434 16.7255 -86.3834
rradius 59.1112
rwrist -26.4159
rhand 3.00176 -46.7405
rfingers 7.12502
rthumb -151.538 465.405
lclavicle -1.37161e-014 -5.1684e-015
lhumerus -54.8323 -7.96604 84.4582
lradius 45.8734
lwrist 11.7525
lhand -18.9909 -45.0839
lfingers 7.12502
lthumb 7.31397 -15.2303
rfemur 1.14785 11.2054 33.799
rtibia -1.43125e-014
rfoot 0.382166 -25.53
rtoes 19.1375
lfemur -23.8642 3.6571 -12.4383
ltibia 95.9898
lfoot -9.11283 -9.13016
ltoes -26.3365
475
root 8.79251 15.5087 16.139 176.244 -3.65648 -174.993
lowerback 10.6219 1.00093 2.97113
upperback -4.52698 1.80537 0.749375
thorax -10.8023 0.658602 -1.2149
lowerneck -8.98925 -4.24531 -6.68551
upperneck 18.9679 -6.70188 5.93043
head 7.73506 -3.45109 2.38177
rclavicle -2.93207e-015 2.78299e-015
rhumerus -34.1135 17.2755 -85.3986
rradius 60.6176
rwrist -27.0851
rhand 3.53932 -47.0075
rfingers 7.12502
rthumb -151.024 465.225
lclavicle -2.93207e-015 2.78299e-015
lhumerus -56.4499 -7.91622 84.2359
lradius 44.94
lwrist 11.3823
lhand -18.759 -44.9677
lfingers 7.12502
lthumb 7.53779 -15.122
rfemur 1.77972 10.8771 34.1623
rtibia 1.31198e-014
rfoot -0.4804 -25.4622
rtoes 19.5753
lfemur -27.0986 3.21963 -12.3578
ltibia 99.3409
lfoot -9.8536 -8.99986
ltoes -24.7909
476
root 8.78968 15.52 16.0095 176.298 -3.49732 -175.034
lowerback 10.5526 1.22541 3.21362
upperback -4.49589 2.13163 0.638611
thorax -10.7005 0.796592 -1.53188
lowerneck -8.89074 -4.44534 -6.64938
upperneck 19.0159 -6.99131 5.86151
head 7.74975 -3.59715 2.32471
rclavicle 1.69961e-014 5.96354e-015
rhumerus -31.9053 17.8179 -84.383
rradius 61.9429
rwrist -28.0014
rhand 3.42851 -46.9675
rfingers 7.12502
rthumb -151.13 465.246
lclavicle 1.69961e-014 5.96354e-015
lhumerus -58.0851 -7.82819 83.8816
lradius 44.0231
lwrist 10.8434
lhand -18.6021 -45.0878
lfingers 7.12502
lthumb 7.68919 -15.2476
rfemur 2.32405 10.722 34.2513
rtibia -2.38542e-015
rfoot -0.971324 -25.0512
rtoes 18.101
lfemur -29.6779 2.80945 -12.557
ltibia 102.188
lfoot -11.0571 -8.74592
ltoes -22.4996
477
root 8.78693 15.5388 15.8751 175.921 -3.12124 -174.592
lowerback 10.8669 1.43936 3.95187
upperback -4.33796 2.54922 0.679293
thorax -10.6656 0.950719 -1.99105
lowerneck -8.78806 -4.59154 -6.7724
upperneck 19.0247 -7.22407 6.02294
head 7.76071 -3.70738 2.37598
rclavicle 1.35174e-014 -1.98785e-015
rhumerus -29.7812 18.4665 -83.3704
rradius 63.4105
rwrist -29.1431
rhand 2.95344 -46.4456
rfingers 7.12502
rthumb -151.584 465.692
lclavicle 1.35174e-014 -1.98785e-015
lhumerus -59.5402 -7.56551 83.306
lradius 43.124
lwrist 10.0799
lhand -18.4023 -45.046
lfingers 7.12502
lthumb 7.88209 -15.213
rfemur 3.29646 10.6432 34.9608
rtibia -3.18055e-015
rfoot -0.897923 -24.5532
rtoes 16.006
lfemur -32.3708 2.90034 -12.2246
ltibia 104.847
lfoot -12.2271 -8.10944
ltoes -27.4246
